<mxfile host="Electron" modified="2024-02-27T13:25:25.138Z" agent="Mozilla/5.0 (Windows NT 10.0; Win64; x64) AppleWebKit/537.36 (KHTML, like Gecko) draw.io/23.1.5 Chrome/120.0.6099.109 Electron/28.1.0 Safari/537.36" etag="O7TrfMEGWpolgd_zCaPy" version="23.1.5" type="device">
  <diagram name="ページ1" id="LE8fIzdrHe0wcv1LTvfw">
    <mxGraphModel dx="866" dy="518" grid="1" gridSize="10" guides="1" tooltips="1" connect="1" arrows="1" fold="1" page="1" pageScale="1" pageWidth="1600" pageHeight="1200" math="0" shadow="0">
      <root>
        <mxCell id="0" />
        <mxCell id="cFaB45KztUIKXS-_cTrr-4" value="背景" style="locked=1;" parent="0" visible="0" />
        <mxCell id="cFaB45KztUIKXS-_cTrr-5" value="" style="rounded=0;whiteSpace=wrap;html=1;strokeWidth=3;" parent="cFaB45KztUIKXS-_cTrr-4" vertex="1">
          <mxGeometry x="1" y="1" width="1595" height="1180" as="geometry" />
        </mxCell>
        <mxCell id="cFaB45KztUIKXS-_cTrr-6" value="" style="rounded=0;whiteSpace=wrap;html=1;fillColor=#B3B3B3;fontColor=#333333;strokeColor=#666666;" parent="cFaB45KztUIKXS-_cTrr-4" vertex="1">
          <mxGeometry width="1595" height="60" as="geometry" />
        </mxCell>
        <mxCell id="cFaB45KztUIKXS-_cTrr-7" value="&lt;font style=&quot;font-size: 48px;&quot;&gt;×&lt;/font&gt;" style="rounded=0;whiteSpace=wrap;html=1;" parent="cFaB45KztUIKXS-_cTrr-4" vertex="1">
          <mxGeometry x="1550" y="10" width="40" height="40" as="geometry" />
        </mxCell>
        <mxCell id="cFaB45KztUIKXS-_cTrr-8" value="" style="rounded=0;whiteSpace=wrap;html=1;" parent="cFaB45KztUIKXS-_cTrr-4" vertex="1">
          <mxGeometry x="830" y="670" width="120" height="60" as="geometry" />
        </mxCell>
        <mxCell id="cFaB45KztUIKXS-_cTrr-9" value="ウインドウ" style="locked=1;" parent="0" />
        <mxCell id="cFaB45KztUIKXS-_cTrr-10" value="" style="rounded=0;whiteSpace=wrap;html=1;strokeWidth=3;" parent="cFaB45KztUIKXS-_cTrr-9" vertex="1">
          <mxGeometry x="15" y="10" width="1584" height="1170" as="geometry" />
        </mxCell>
        <mxCell id="cFaB45KztUIKXS-_cTrr-11" value="" style="rounded=0;whiteSpace=wrap;html=1;fillColor=#B3B3B3;fontColor=#333333;strokeColor=#666666;" parent="cFaB45KztUIKXS-_cTrr-9" vertex="1">
          <mxGeometry x="4" y="20" width="1595" height="60" as="geometry" />
        </mxCell>
        <mxCell id="cFaB45KztUIKXS-_cTrr-12" value="&lt;font style=&quot;font-size: 48px;&quot;&gt;×&lt;/font&gt;" style="rounded=0;whiteSpace=wrap;html=1;" parent="cFaB45KztUIKXS-_cTrr-9" vertex="1">
          <mxGeometry x="1554" y="30" width="40" height="40" as="geometry" />
        </mxCell>
        <mxCell id="g7l7Ze3qlmc8qRdJsH5r-0" value="&lt;span style=&quot;font-size: 30px;&quot;&gt;☑一致&lt;/span&gt;" style="rounded=0;whiteSpace=wrap;html=1;align=left;dashed=1;dashPattern=8 8;verticalAlign=bottom;" vertex="1" parent="cFaB45KztUIKXS-_cTrr-9">
          <mxGeometry x="1121" y="665" width="160" height="46" as="geometry" />
        </mxCell>
        <mxCell id="g7l7Ze3qlmc8qRdJsH5r-1" value="&lt;span style=&quot;font-size: 30px;&quot;&gt;☑一致&lt;/span&gt;" style="rounded=0;whiteSpace=wrap;html=1;align=left;dashed=1;dashPattern=8 8;verticalAlign=bottom;" vertex="1" parent="cFaB45KztUIKXS-_cTrr-9">
          <mxGeometry x="1121" y="595" width="160" height="46" as="geometry" />
        </mxCell>
        <mxCell id="g7l7Ze3qlmc8qRdJsH5r-2" value="&lt;span style=&quot;font-size: 30px;&quot;&gt;☑一致&lt;/span&gt;" style="rounded=0;whiteSpace=wrap;html=1;align=left;dashed=1;dashPattern=8 8;verticalAlign=bottom;" vertex="1" parent="cFaB45KztUIKXS-_cTrr-9">
          <mxGeometry x="1121" y="524" width="160" height="46" as="geometry" />
        </mxCell>
        <mxCell id="g7l7Ze3qlmc8qRdJsH5r-3" value="&lt;span style=&quot;font-size: 30px;&quot;&gt;☑一致&lt;/span&gt;" style="rounded=0;whiteSpace=wrap;html=1;align=left;dashed=1;dashPattern=8 8;verticalAlign=bottom;" vertex="1" parent="cFaB45KztUIKXS-_cTrr-9">
          <mxGeometry x="1121" y="395" width="160" height="46" as="geometry" />
        </mxCell>
        <mxCell id="cFaB45KztUIKXS-_cTrr-14" value="名称未設定レイヤ" style="" parent="0" />
        <mxCell id="HvR4dSRWBfD3urc1JDpB-6" value="&lt;font style=&quot;font-size: 30px;&quot;&gt;ご自身の団体の過去の収支報告書XMLを指定してください&lt;/font&gt;" style="text;html=1;strokeColor=none;fillColor=none;align=left;verticalAlign=middle;whiteSpace=wrap;rounded=0;" parent="cFaB45KztUIKXS-_cTrr-14" vertex="1">
          <mxGeometry x="54" y="250" width="840" height="30" as="geometry" />
        </mxCell>
        <mxCell id="HvR4dSRWBfD3urc1JDpB-8" value="&lt;span style=&quot;font-size: 30px;&quot;&gt;政治資金収支報告書XMLデータは持っていませんが、政治団体設立届を提出済です。(別ページに移動)&lt;/span&gt;" style="text;html=1;strokeColor=none;fillColor=none;align=left;verticalAlign=middle;whiteSpace=wrap;rounded=0;fontStyle=4" parent="cFaB45KztUIKXS-_cTrr-14" vertex="1">
          <mxGeometry x="54" y="105" width="1446" height="50" as="geometry" />
        </mxCell>
        <mxCell id="HvR4dSRWBfD3urc1JDpB-15" value="&lt;span style=&quot;font-size: 30px;&quot;&gt;更新&lt;/span&gt;" style="rounded=1;whiteSpace=wrap;html=1;fillColor=#CCCCCC;" parent="cFaB45KztUIKXS-_cTrr-14" vertex="1">
          <mxGeometry x="1344" y="1080" width="210" height="60" as="geometry" />
        </mxCell>
        <mxCell id="HvR4dSRWBfD3urc1JDpB-16" value="&lt;span style=&quot;font-size: 30px;&quot;&gt;キャンセル&lt;/span&gt;" style="rounded=1;whiteSpace=wrap;html=1;" parent="cFaB45KztUIKXS-_cTrr-14" vertex="1">
          <mxGeometry x="1094" y="1080" width="210" height="60" as="geometry" />
        </mxCell>
        <mxCell id="8Hxk6lD6Y1Y_H0gw2qUc-0" value="&lt;span style=&quot;font-size: 30px;&quot;&gt;Upload&lt;/span&gt;" style="rounded=1;whiteSpace=wrap;html=1;fillColor=#FFFFFF;strokeWidth=3;" parent="cFaB45KztUIKXS-_cTrr-14" vertex="1">
          <mxGeometry x="960" y="290" width="210" height="60" as="geometry" />
        </mxCell>
        <mxCell id="8Hxk6lD6Y1Y_H0gw2qUc-2" value="" style="rounded=0;whiteSpace=wrap;html=1;" parent="cFaB45KztUIKXS-_cTrr-14" vertex="1">
          <mxGeometry x="54" y="290" width="830" height="60" as="geometry" />
        </mxCell>
        <mxCell id="8Hxk6lD6Y1Y_H0gw2qUc-4" value="&lt;span style=&quot;font-size: 30px;&quot;&gt;政治団体名&lt;/span&gt;" style="rounded=0;whiteSpace=wrap;html=1;align=right;dashed=1;dashPattern=8 8;verticalAlign=bottom;" parent="cFaB45KztUIKXS-_cTrr-14" vertex="1">
          <mxGeometry x="84" y="390" width="310" height="46" as="geometry" />
        </mxCell>
        <mxCell id="8Hxk6lD6Y1Y_H0gw2qUc-5" value="&lt;font style=&quot;font-size: 30px;&quot;&gt;サンプル政治団体&lt;/font&gt;" style="rounded=0;whiteSpace=wrap;html=1;align=left;fillColor=#CCCCCC;" parent="cFaB45KztUIKXS-_cTrr-14" vertex="1">
          <mxGeometry x="414" y="388" width="450" height="48" as="geometry" />
        </mxCell>
        <mxCell id="8Hxk6lD6Y1Y_H0gw2qUc-6" value="&lt;span style=&quot;font-size: 30px;&quot;&gt;報告年&lt;/span&gt;" style="rounded=0;whiteSpace=wrap;html=1;align=right;dashed=1;dashPattern=8 8;verticalAlign=bottom;" parent="cFaB45KztUIKXS-_cTrr-14" vertex="1">
          <mxGeometry x="84" y="458" width="310" height="46" as="geometry" />
        </mxCell>
        <mxCell id="8Hxk6lD6Y1Y_H0gw2qUc-7" value="&lt;font style=&quot;font-size: 30px;&quot;&gt;2022&lt;/font&gt;" style="rounded=0;whiteSpace=wrap;html=1;align=left;fillColor=#CCCCCC;" parent="cFaB45KztUIKXS-_cTrr-14" vertex="1">
          <mxGeometry x="414" y="456" width="450" height="48" as="geometry" />
        </mxCell>
        <mxCell id="8Hxk6lD6Y1Y_H0gw2qUc-8" value="&lt;span style=&quot;font-size: 30px;&quot;&gt;代表者名&lt;/span&gt;" style="rounded=0;whiteSpace=wrap;html=1;align=right;dashed=1;dashPattern=8 8;verticalAlign=bottom;" parent="cFaB45KztUIKXS-_cTrr-14" vertex="1">
          <mxGeometry x="84" y="528" width="310" height="46" as="geometry" />
        </mxCell>
        <mxCell id="8Hxk6lD6Y1Y_H0gw2qUc-9" value="&lt;font style=&quot;font-size: 30px;&quot;&gt;政治団体　三郎&lt;/font&gt;" style="rounded=0;whiteSpace=wrap;html=1;align=left;fillColor=#CCCCCC;" parent="cFaB45KztUIKXS-_cTrr-14" vertex="1">
          <mxGeometry x="414" y="526" width="450" height="48" as="geometry" />
        </mxCell>
        <mxCell id="8Hxk6lD6Y1Y_H0gw2qUc-10" value="&lt;span style=&quot;font-size: 30px;&quot;&gt;会計責任者名&lt;/span&gt;" style="rounded=0;whiteSpace=wrap;html=1;align=right;dashed=1;dashPattern=8 8;verticalAlign=bottom;" parent="cFaB45KztUIKXS-_cTrr-14" vertex="1">
          <mxGeometry x="84" y="598" width="310" height="46" as="geometry" />
        </mxCell>
        <mxCell id="8Hxk6lD6Y1Y_H0gw2qUc-11" value="&lt;font style=&quot;font-size: 30px;&quot;&gt;政治団体　花子&lt;/font&gt;" style="rounded=0;whiteSpace=wrap;html=1;align=left;fillColor=#CCCCCC;" parent="cFaB45KztUIKXS-_cTrr-14" vertex="1">
          <mxGeometry x="414" y="596" width="450" height="48" as="geometry" />
        </mxCell>
        <mxCell id="8Hxk6lD6Y1Y_H0gw2qUc-12" value="&lt;span style=&quot;font-size: 30px;&quot;&gt;政治団体区分&lt;/span&gt;" style="rounded=0;whiteSpace=wrap;html=1;align=right;dashed=1;dashPattern=8 8;verticalAlign=bottom;" parent="cFaB45KztUIKXS-_cTrr-14" vertex="1">
          <mxGeometry x="84" y="796" width="310" height="46" as="geometry" />
        </mxCell>
        <mxCell id="8Hxk6lD6Y1Y_H0gw2qUc-13" value="&lt;font style=&quot;font-size: 30px;&quot;&gt;▼その他の政治団体&lt;/font&gt;" style="rounded=0;whiteSpace=wrap;html=1;align=left;fillColor=#CCCCCC;" parent="cFaB45KztUIKXS-_cTrr-14" vertex="1">
          <mxGeometry x="414" y="794" width="450" height="48" as="geometry" />
        </mxCell>
        <mxCell id="8Hxk6lD6Y1Y_H0gw2qUc-14" value="&lt;span style=&quot;font-size: 30px;&quot;&gt;政治資金管理団体の有無&lt;/span&gt;" style="rounded=0;whiteSpace=wrap;html=1;align=right;dashed=1;dashPattern=8 8;verticalAlign=bottom;" parent="cFaB45KztUIKXS-_cTrr-14" vertex="1">
          <mxGeometry x="54" y="857" width="340" height="46" as="geometry" />
        </mxCell>
        <mxCell id="8Hxk6lD6Y1Y_H0gw2qUc-16" value="&lt;span style=&quot;font-size: 30px;&quot;&gt;☑有&lt;/span&gt;" style="rounded=0;whiteSpace=wrap;html=1;align=left;dashed=1;dashPattern=8 8;verticalAlign=bottom;fillColor=#CCCCCC;" parent="cFaB45KztUIKXS-_cTrr-14" vertex="1">
          <mxGeometry x="414" y="857" width="710" height="46" as="geometry" />
        </mxCell>
        <mxCell id="m5rQLSsZGB3rXxp2ildc-1" value="&lt;span style=&quot;font-size: 30px;&quot;&gt;主たる事務所の住所&lt;/span&gt;" style="rounded=0;whiteSpace=wrap;html=1;align=right;dashed=1;dashPattern=8 8;verticalAlign=bottom;" parent="cFaB45KztUIKXS-_cTrr-14" vertex="1">
          <mxGeometry x="84" y="667" width="310" height="46" as="geometry" />
        </mxCell>
        <mxCell id="m5rQLSsZGB3rXxp2ildc-2" value="&lt;font style=&quot;font-size: 30px;&quot;&gt;東京都千代田区霞が関xxxx番地zzzビルディングqqq号室&lt;/font&gt;" style="rounded=0;whiteSpace=wrap;html=1;align=left;fillColor=#CCCCCC;verticalAlign=top;" parent="cFaB45KztUIKXS-_cTrr-14" vertex="1">
          <mxGeometry x="414" y="665" width="670" height="115" as="geometry" />
        </mxCell>
        <mxCell id="hfyC0uJlgGXm-Ng4gNZm-0" value="&lt;span style=&quot;font-size: 30px;&quot;&gt;これから政治団体設立届を提出する予定です。(別ページに移動)&lt;/span&gt;" style="text;html=1;strokeColor=none;fillColor=none;align=left;verticalAlign=middle;whiteSpace=wrap;rounded=0;fontStyle=4" parent="cFaB45KztUIKXS-_cTrr-14" vertex="1">
          <mxGeometry x="54" y="170" width="1150" height="40" as="geometry" />
        </mxCell>
        <mxCell id="g7l7Ze3qlmc8qRdJsH5r-4" value="&lt;span style=&quot;font-size: 30px;&quot;&gt;結びつける登録済の政治団体&lt;/span&gt;" style="rounded=0;whiteSpace=wrap;html=1;align=right;dashed=1;dashPattern=8 8;verticalAlign=top;" vertex="1" parent="cFaB45KztUIKXS-_cTrr-14">
          <mxGeometry x="101" y="926" width="290" height="94" as="geometry" />
        </mxCell>
        <mxCell id="g7l7Ze3qlmc8qRdJsH5r-5" value="&lt;span style=&quot;font-size: 30px;&quot;&gt;ちゃらんぽらん政治団体&lt;/span&gt;" style="rounded=0;whiteSpace=wrap;html=1;align=left;fillColor=#CCCCCC;" vertex="1" parent="cFaB45KztUIKXS-_cTrr-14">
          <mxGeometry x="411" y="985" width="880" height="48" as="geometry" />
        </mxCell>
        <mxCell id="g7l7Ze3qlmc8qRdJsH5r-6" value="&lt;span style=&quot;font-size: 30px;&quot;&gt;1111333&lt;/span&gt;" style="rounded=0;whiteSpace=wrap;html=1;align=left;fillColor=#CCCCCC;" vertex="1" parent="cFaB45KztUIKXS-_cTrr-14">
          <mxGeometry x="411" y="928" width="360" height="48" as="geometry" />
        </mxCell>
        <mxCell id="g7l7Ze3qlmc8qRdJsH5r-7" value="&lt;span style=&quot;font-size: 30px;&quot;&gt;検索&lt;/span&gt;" style="rounded=1;whiteSpace=wrap;html=1;fillColor=#FFFFFF;strokeWidth=3;" vertex="1" parent="cFaB45KztUIKXS-_cTrr-14">
          <mxGeometry x="1078" y="920" width="210" height="45" as="geometry" />
        </mxCell>
      </root>
    </mxGraphModel>
  </diagram>
</mxfile>
